# AST/ASF file generated using VICON BodyLanguage
# -----------------------------------------------
:version 1.10
:name VICON
:units
  mass 1.0
  length 0.45
  angle deg
:documentation
   .ast/.asf automatically generated from VICON data using
   VICON BodyBuilder and BodyLanguage model FoxedUp or BRILLIANT.MOD
:root
   order TX TY TZ RX RY RZ
   axis XYZ
   position 0 0 0  
   orientation 0 0 0 
:bonedata
  begin
     id 1 
     name lhipjoint
     direction 0.653368 -0.678499 0.335782 
     length 2.51848 
     axis 0 0 0  XYZ
  end
  begin
     id 2 
     name lfemur
     direction 0.34202 -0.939693 0  
     length 6.57749  
     axis 0 0 20  XYZ
    dof rx ry rz
    limits (-160.0 20.0)
           (-70.0 70.0)
           (-60.0 70.0)
  end
  begin
     id 3 
     name ltibia
     direction 0.34202 -0.939693 0   
     length 7.94618   
     axis 0 0 20   XYZ
    dof rx
    limits (-10.0 170.0)
  end
  begin
     id 4 
     name lfoot
     direction 0.0811271 -0.222895 0.971461   
     length 2.31339   
     axis -90 7.62852e-016 20   XYZ
    dof rx rz
    limits (-45.0 90.0)
           (-70.0 20.0)
  end
  begin
     id 5 
     name ltoes
     direction 1.53568e-011 -4.21885e-011 1   
     length 1.15935   
     axis -90 7.62852e-016 20   XYZ
    dof rx
    limits (-90.0 20.0)
  end
  begin
     id 6 
     name rhipjoint
     direction -0.640058 -0.688614 0.340788   
     length 2.48149  
     axis 0 0 0  XYZ 
  end
  begin
     id 7 
     name rfemur
     direction -0.34202 -0.939693 0   
     length 6.57875   
     axis 0 0 -20   XYZ
    dof rx ry rz
    limits (-160.0 20.0)
           (-70.0 70.0)
           (-70.0 60.0)
  end
  begin
     id 8 
     name rtibia
     direction -0.34202 -0.939693 0   
     length 7.977   
     axis 0 0 -20   XYZ
    dof rx
    limits (-10.0 170.0)
 end
 begin
     id 9 
     name rfoot
     direction -0.0979793 -0.269196 0.958089   
     length 2.19857  
     axis -90 -7.62852e-016 -20   XYZ
    dof rx rz
    limits (-45.0 90.0)
           (-20.0 70.0)
  end
  begin
     id 10 
     name rtoes
     direction -1.53556e-011 -4.21868e-011 1   
     length 1.09838   
     axis -90 -7.62852e-016 -20   XYZ
    dof rx
    limits (-90.0 20.0)
  end
  begin
     id 11 
     name lowerback
     direction 0.0149039 0.998517 -0.0523597   
     length 2.10809   
     axis 0 0 0   XYZ
    dof rx ry rz
    limits (-20.0 45.0)
           (-30.0 30.0)
           (-30.0 30.0)
  end
  begin
     id 12 
     name upperback
     direction -0.00882659 0.999418 -0.0329624   
     length 2.1102   
     axis 0 0 0   XYZ
    dof rx ry rz
    limits (-20.0 45.0)
           (-30.0 30.0)
           (-30.0 30.0)
  end
  begin
     id 13 
     name thorax
     direction -0.0165585 0.999826 -0.0085833   
     length 2.11039   
     axis 0 0 0   XYZ
    dof rx ry rz
    limits (-20.0 45.0)
           (-30.0 30.0)
           (-30.0 30.0)
  end
  begin
     id 14 
     name lowerneck
     direction -0.0130877 0.999911 0.00260353   
     length 1.73253   
     axis 0 0 0   XYZ
    dof rx ry rz
    limits (-20.0 45.0)
           (-30.0 30.0)
           (-30.0 30.0)
  end
  begin
     id 15 
     name upperneck
     direction -0.0348454 0.928205 -0.370435   
     length 1.66692   
     axis 0 0 0   XYZ
    dof rx ry rz
    limits (-20.0 45.0)
           (-30.0 30.0)
           (-30.0 30.0)
  end
  begin
     id 16
     name head
     direction -0.00807754 0.992494 -0.122026  
     length 1.72765  
     axis 0 0 0   XYZ
    dof rx ry rz
    limits (-20.0 45.0)
           (-30.0 30.0)
           (-30.0 30.0)
  end
  begin
     id 17 
     name lclavicle
     direction 0.987582 0.144023 0.0627671  
     length 3.49235  
     axis 0 0 0   XYZ
    dof ry rz
    limits (-20.0 10.0)
           (0.0 20.0)
  end
  begin
     id 18 
     name lhumerus
     direction 1 -4.48958e-011 -1.45183e-018   
     length 5.41917   
     axis 180 -30 -90   XYZ
    dof rx ry rz
    limits (-60.0 90.0)
           (-90.0 90.0)
           (-90.0 90.0)
  end
  begin
     id 19
     name lradius
     direction 1 -4.48999e-011 5.75106e-027   
     length 2.44373   
     axis 180 -30 -90   XYZ
    dof rx
    limits (-10.0 170.0)
  end
  begin
     id 20
     name lwrist
     direction 1 -4.48987e-011 1.53461e-026   
     length 1.22186   
     axis -1.09697e-014 90 90   XYZ
    dof ry
    limits (-180.0 0.0)
 end
  begin
     id 21 
     name lhand
     direction 1 -4.48881e-011 3.06923e-026   
     length 0.727502   
     axis -1.95843e-014 90 90   XYZ
    dof rx rz
    limits (-90.0 90.0)
           (-45.0 45.0)
  end
  begin
     id 22 
     name lfingers
     direction 1 -4.48907e-011 6.13845e-026   
     length 0.586531   
     axis -3.91686e-014 90 90   XYZ
    dof rx
    limits (0.0 90.0)
  end
  begin
     id 23
     name lthumb
     direction 0.707107 -6.3487e-011 0.707107   
     length 0.842145   
     axis -90 45 2.85299e-015   XYZ
    dof rx rz
    limits (-45.0 45.0)
           (-45.0 45.0)
  end
  begin
     id 24 
     name rclavicle
     direction -0.980998 0.169556 0.0943023   
     length 3.29272  
     axis 0 0 0   XYZ 
    dof ry rz
    limits (-10.0 20.0)
           (-20.0 0.0)
  end
  begin
     id 25 
     name rhumerus
     direction -1 -1.83355e-005 2.45537e-005  
     length 5.58976   
     axis 180 30 90   XYZ
    dof rx ry rz
    limits (-90.0 60.0)
           (-90.0 90.0)
           (-90.0 90.0)
  end
  begin
     id 26 
     name rradius
     direction -1 -4.48967e-011 5.97228e-027   
     length 2.4806   
     axis 180 30 90   XYZ
    dof rx
    limits (-10.0 170.0)
  end
  begin
     id 27 
     name rwrist
     direction -1 -4.48963e-011 1.53461e-026   
     length 1.2403   
     axis -1.09697e-014 -90 -90   XYZ
    dof ry
    limits (-180.0 0.0)
  end
  begin
     id 28
     name rhand
     direction -1 -4.48881e-011 3.06923e-026   
     length 0.816009   
     axis -1.95843e-014 -90 -90   XYZ
    dof rx rz
    limits (-90.0 90.0)
           (-45.0 45.0)
  end
  begin
     id 29
     name rfingers
     direction -1 -4.49018e-011 6.13845e-026   
     length 0.657887   
     axis -3.91686e-014 -90 -90   XYZ
    dof rx
    limits (0.0 90.0)
  end
  begin
     id 30
     name rthumb
     direction -0.707107 -6.34872e-011 0.707107   
     length 0.944599   
     axis -90 -45 -2.85299e-015   XYZ
    dof rx rz
    limits (-45.0 45.0)
           (-45.0 45.0)
  end
:hierarchy
  begin
    root lhipjoint rhipjoint lowerback
    lhipjoint lfemur
    lfemur ltibia
    ltibia lfoot
    lfoot ltoes
    rhipjoint rfemur
    rfemur rtibia
    rtibia rfoot
    rfoot rtoes
    lowerback upperback
    upperback thorax
    thorax lowerneck lclavicle rclavicle
    lowerneck upperneck
    upperneck head
    lclavicle lhumerus
    lhumerus lradius
    lradius lwrist
    lwrist lhand lthumb
    lhand lfingers
    rclavicle rhumerus
    rhumerus rradius
    rradius rwrist
    rwrist rhand rthumb
    rhand rfingers
  end

#!OML:ASF F:\VICON\USERDATA\INSTALL\rory3\rory3.ASF
:FULLY-SPECIFIED
:DEGREES
1
root 4.41332 16.3524 27.6297 28.6608 -48.5048 -4.69211
lowerback -16.0227 1.11681 -2.18776
upperback -6.95325 1.58982 0.430752
thorax 1.51794 0.761238 1.95314
lowerneck -8.504 -1.08115 -0.810516
upperneck 42.6532 -4.87278 4.74332
head 17.1908 -1.94574 1.38745
rclavicle 7.77745e-015 -7.55382e-015
rhumerus -131.859 -32.1723 69.6008
rradius -0.843753
rwrist 130.436
rhand 10.6243 9.69905
rfingers 7.12502
rthumb 35.7183 -16.6862
lclavicle 7.77745e-015 -7.55382e-015
lhumerus -41.382 18.1018 63.1747
lradius 24.3255
lwrist -7.28412
lhand 16.2901 21.7883
lfingers 7.12502
lthumb 41.0646 46.6841
rfemur -32.5399 -21.28 34.8422
rtibia 57.2913
rfoot 43.4503 -26.9007
rtoes 37.8683
lfemur -51.142 1.42876 -28.821
ltibia 48.5323
lfoot -39.1279 23.4458
ltoes 12.4938
2
root 4.42023 16.3571 27.6309 28.6622 -48.2363 -4.7927
lowerback -16.077 0.946277 -2.07529
upperback -7.01337 1.34045 0.612591
thorax 1.4933 0.636626 2.03919
lowerneck -8.42814 -0.950031 -0.474281
upperneck 42.5164 -4.48783 4.15541
head 17.0364 -1.8096 1.11882
rclavicle 1.56543e-014 1.88845e-014
rhumerus -131.715 -32.6763 69.5487
rradius -0.607068
rwrist 130.343
rhand 11.1463 9.79891
rfingers 7.12502
rthumb 36.2128 -16.465
lclavicle 1.56543e-014 1.88845e-014
lhumerus -41.424 17.8493 63.443
lradius 24.1163
lwrist -7.66949
lhand 16.8506 21.5546
lfingers 7.12502
lthumb 41.5907 46.2804
rfemur -32.301 -21.2314 34.7927
rtibia 57.1885
rfoot 41.4777 -30.0488
rtoes 41.8358
lfemur -51.0496 1.23997 -28.6499
ltibia 48.5245
lfoot -39.1631 23.2804
ltoes 12.8528
3
root 4.43507 16.3544 27.6307 28.6122 -48.2869 -5.01013
lowerback -15.9166 0.996962 -1.92274
upperback -7.03612 1.37959 0.704904
thorax 1.38486 0.656343 2.05244
lowerneck -8.65421 -0.935672 -0.143858
upperneck 42.5329 -4.32907 3.63633
head 17.0671 -1.75116 0.847037
rclavicle -4.11857e-014 -2.36554e-014
rhumerus -131.756 -32.9473 69.6942
rradius -0.252841
rwrist 130.269
rhand 11.6198 10.1021
rfingers 7.12502
rthumb 36.661 -16.0492
lclavicle -4.11857e-014 -2.36554e-014
lhumerus -41.3259 17.1619 63.9383
lradius 24.075
lwrist -7.82212
lhand 17.4726 21.5977
lfingers 7.12502
lthumb 42.1738 46.1293
rfemur -32.0246 -20.8079 34.7185
rtibia 57.1788
rfoot 40.8006 -31.6556
rtoes 43.2714
lfemur -50.8129 0.862902 -28.3028
ltibia 48.4482
lfoot -39.7049 23.1956
ltoes 14.3845
4
root 4.44728 16.3474 27.6344 27.8825 -48.5813 -4.5038
lowerback -15.7739 1.06149 -2.23353
upperback -6.95682 1.51362 0.620823
thorax 1.37965 0.729253 2.15958
lowerneck -9.01128 -0.977537 -0.275087
upperneck 42.6024 -4.31369 3.53533
head 17.1969 -1.76839 0.825464
rclavicle -2.66496e-014 -2.8625e-014
rhumerus -131.951 -33.122 69.9963
rradius 0.177221
rwrist 130.32
rhand 12.2246 10.518
rfingers 7.12502
rthumb 37.2331 -15.4859
lclavicle -2.66496e-014 -2.8625e-014
lhumerus -41.0728 16.4991 64.5459
lradius 23.864
lwrist -8.27739
lhand 17.8844 21.3183
lfingers 7.12502
lthumb 42.5594 45.7181
rfemur -31.6754 -20.5232 33.9869
rtibia 57.2504
rfoot 40.6438 -32.296
rtoes 43.6898
lfemur -50.3357 0.561502 -28.6411
ltibia 48.3486
lfoot -40.1909 23.2046
ltoes 15.2124
5
root 4.46166 16.3428 27.632 27.5582 -48.8388 -4.24487
lowerback -15.7733 1.14405 -2.40049
upperback -6.93519 1.65005 0.521535
thorax 1.3924 0.799125 2.17228
lowerneck -9.26129 -1.02489 -0.329817
upperneck 42.5745 -4.37855 3.57512
head 17.251 -1.79141 0.840678
rclavicle -2.23633e-016 -8.34896e-015
rhumerus -131.924 -33.1139 70.1413
rradius -0.0018882
rwrist 130.619
rhand 12.5575 10.3877
rfingers 7.12502
rthumb 37.5478 -15.5331
lclavicle -2.23633e-016 -8.34896e-015
lhumerus -40.7946 15.899 65.0095
lradius 23.7202
lwrist -8.92628
lhand 18.4125 20.9834
lfingers 7.12502
lthumb 43.0534 45.2104
rfemur -31.6175 -19.9574 33.5703
rtibia 57.3373
rfoot 40.2622 -32.9386
rtoes 44.4217
lfemur -50.176 0.500683 -28.8778
ltibia 48.2855
lfoot -40.4901 23.0592
ltoes 15.8652
6
root 4.47967 16.3426 27.6246 27.6683 -49.0487 -4.41475
lowerback -15.751 1.22726 -2.36356
upperback -6.96913 1.75192 0.531633
thorax 1.34014 0.850077 2.17737
lowerneck -9.44974 -1.07995 -0.41238
upperneck 42.4396 -4.45139 3.64827
head 17.2293 -1.81971 0.874175
rclavicle 2.15184e-014 -2.20651e-014
rhumerus -131.926 -33.1904 70.1706
rradius -0.0143529
rwrist 130.936
rhand 12.8153 10.4902
rfingers 7.12502
rthumb 37.7914 -15.3655
lclavicle 2.15184e-014 -2.20651e-014
lhumerus -40.6139 15.468 65.3127
lradius 23.618
lwrist -9.74386
lhand 19.1981 20.7022
lfingers 7.12502
lthumb 43.7873 44.664
rfemur -31.6605 -19.0311 33.4363
rtibia 57.4192
rfoot 37.301 -35.2951
rtoes 47.8462
lfemur -50.2327 0.656935 -28.8173
ltibia 48.2517
lfoot -40.6718 22.8588
ltoes 16.2228
7
root 4.48707 16.3347 27.6183 27.4867 -49.1475 -4.34489
lowerback -15.7677 1.1823 -2.5585
upperback -6.96322 1.7171 0.6449
thorax 1.34608 0.837885 2.40118
lowerneck -9.52643 -1.06652 -0.524339
upperneck 42.262 -4.30829 3.50177
head 17.1359 -1.79426 0.849809
rclavicle -6.1909e-014 -3.55825e-014
rhumerus -131.756 -33.4056 70.2172
rradius 0.0271537
rwrist 131.169
rhand 13.028 10.7646
rfingers 7.12502
rthumb 37.9923 -15.0367
lclavicle -6.1909e-014 -3.55825e-014
lhumerus -40.6004 15.1306 65.7223
lradius 23.5243
lwrist -10.4796
lhand 20.0517 20.4354
lfingers 7.12502
lthumb 44.5832 44.0972
rfemur -31.6596 -18.9316 33.4933
rtibia 57.3683
rfoot 41.0111 -30.7867
rtoes 43.4444
lfemur -50.1516 0.714835 -28.911
ltibia 48.2981
lfoot -40.7377 22.7937
ltoes 16.3614
8
root 4.49094 16.3314 27.6222 27.4595 -49.13 -4.46179
lowerback -15.8722 1.17434 -2.48038
upperback -7.02056 1.69102 0.743214
thorax 1.34134 0.824096 2.45792
lowerneck -9.36336 -1.03355 -0.676197
upperneck 42.1411 -4.17597 3.44819
head 17.0197 -1.77393 0.875685
rclavicle -6.4605e-015 -1.98785e-015
rhumerus -131.21 -33.4463 70.1732
rradius -0.285956
rwrist 131.456
rhand 12.972 10.8326
rfingers 7.12502
rthumb 37.9394 -14.9831
lclavicle -6.4605e-015 -1.98785e-015
lhumerus -40.6465 14.2606 66.321
lradius 23.452
lwrist -10.4968
lhand 20.7291 20.2681
lfingers 7.12502
lthumb 45.2137 43.683
rfemur -31.5152 -18.8898 33.5074
rtibia 57.283
rfoot 42.4917 -28.2564
rtoes 40.8864
lfemur -50.0396 0.746953 -28.8767
ltibia 48.3628
lfoot -40.7218 22.8387
ltoes 16.3877
9
root 4.49485 16.331 27.6251 27.67 -48.9939 -4.79727
lowerback -15.9585 1.2185 -2.24712
upperback -7.11694 1.70969 0.841951
thorax 1.28851 0.830401 2.43358
lowerneck -9.26764 -1.07513 -0.785269
upperneck 41.9676 -4.15976 3.38814
head 16.8952 -1.79251 0.870922
rclavicle 7.98804e-014 5.12864e-014
rhumerus -130.689 -33.3763 70.257
rradius -0.641139
rwrist 131.71
rhand 13.2284 10.9058
rfingers 7.12502
rthumb 38.1815 -14.8438
lclavicle 7.98804e-014 5.12864e-014
lhumerus -40.5968 13.4842 66.8056
lradius 23.3112
lwrist -10.7341
lhand 21.7642 20.1354
lfingers 7.12502
lthumb 46.1749 43.1568
rfemur -31.3423 -18.7841 33.6492
rtibia 57.1203
rfoot 42.8722 -27.4497
rtoes 40.2781
lfemur -50.0415 0.809022 -28.6817
ltibia 48.4777
lfoot -40.7608 22.7221
ltoes 16.6717
10
root 4.49933 16.3403 27.6219 27.8737 -48.7539 -5.14861
lowerback -15.9832 1.33605 -1.96562
upperback -7.1583 1.82197 0.896892
thorax 1.25968 0.882183 2.35052
lowerneck -9.51843 -1.2095 -0.807457
upperneck 41.9392 -4.30103 3.28442
head 16.9451 -1.85887 0.803155
rclavicle 4.20492e-014 3.77691e-015
rhumerus -130.661 -33.2009 70.627
rradius -0.744324
rwrist 131.877
rhand 13.649 10.8431
rfingers 7.12502
rthumb 38.5785 -14.7963
lclavicle 4.20492e-014 3.77691e-015
lhumerus -40.4217 13.1567 67.0815
lradius 23.1358
lwrist -11.4483
lhand 22.778 20.0049
lfingers 7.12502
lthumb 47.1137 42.6208
rfemur -31.0507 -18.1939 33.5949
rtibia 57.0589
rfoot 39.2697 -32.6007
rtoes 45.5466
lfemur -50.0324 1.03315 -28.4938
ltibia 48.5263
lfoot -40.4624 22.5444
ltoes 16.5567
11
root 4.50654 16.3391 27.6213 28.0305 -48.6301 -5.47968
lowerback -16.0365 1.37968 -1.66665
upperback -7.13735 1.83658 0.920813
thorax 1.31935 0.88275 2.21107
lowerneck -9.76141 -1.26322 -0.743237
upperneck 41.914 -4.36874 3.22587
head 16.9918 -1.87836 0.751176
rclavicle 7.68862e-014 -4.73108e-014
rhumerus -130.971 -33.4377 70.8067
rradius -0.374117
rwrist 131.888
rhand 13.9371 10.7109
rfingers 7.12502
rthumb 38.8502 -14.8518
lclavicle 7.68862e-014 -4.73108e-014
lhumerus -40.3519 12.8095 67.3176
lradius 23.0837
lwrist -11.5961
lhand 23.1455 20.0697
lfingers 7.12502
lthumb 47.4533 42.5336
rfemur -30.9758 -18.2156 33.8869
rtibia 56.9778
rfoot 41.1168 -30.0511
rtoes 43.2266
lfemur -50.0162 1.32108 -28.3626
ltibia 48.5786
lfoot -40.199 22.4591
ltoes 16.2459
12
root 4.52133 16.3379 27.623 27.7242 -48.9913 -5.13079
lowerback -16.0928 1.35046 -1.94682
upperback -7.15628 1.83935 0.847588
thorax 1.32099 0.887982 2.29426
lowerneck -9.75686 -1.23889 -0.689209
upperneck 41.8395 -4.29857 3.12592
head 16.94 -1.85553 0.707099
rclavicle -1.2657e-013 -2.64384e-014
rhumerus -131.253 -33.9898 70.8458
rradius 0.359897
rwrist 132.001
rhand 14.5639 10.9236
rfingers 7.12502
rthumb 39.441 -14.4687
lclavicle -1.2657e-013 -2.64384e-014
lhumerus -40.4379 12.6211 67.4399
lradius 23.0379
lwrist -11.6392
lhand 23.4538 20.0806
lfingers 7.12502
lthumb 47.7379 42.4147
rfemur -31.0982 -18.0864 33.5644
rtibia 57.0353
rfoot 42.9244 -27.2462
rtoes 40.6668
lfemur -49.9842 1.47243 -28.7463
ltibia 48.5359
lfoot -40.2428 22.5448
ltoes 15.8373
13
root 4.53506 16.3375 27.6245 27.3248 -49.1192 -4.80106
lowerback -15.9377 1.39245 -2.15048
upperback -7.26727 1.92122 0.751018
thorax 1.11324 0.934903 2.31461
lowerneck -9.60585 -1.30796 -0.551776
upperneck 41.8099 -4.36399 2.94101
head 16.876 -1.88846 0.589603
rclavicle 4.76214e-014 1.78906e-015
rhumerus -131.182 -34.0259 70.9569
rradius 0.697222
rwrist 132.138
rhand 14.9652 11.2739
rfingers 7.12502
rthumb 39.8189 -14.0065
lclavicle 4.76214e-014 1.78906e-015
lhumerus -40.5286 11.9854 67.7464
lradius 22.9374
lwrist -11.5695
lhand 23.9735 20.0176
lfingers 7.12502
lthumb 48.2171 42.1285
rfemur -31.0585 -18.1773 33.2729
rtibia 57.0799
rfoot 42.7894 -25.9194
rtoes 41.2212
lfemur -49.8335 1.60123 -29.0801
ltibia 48.4866
lfoot -40.1647 22.5468
ltoes 15.302
